<svg xmlns="http://www.w3.org/2000/svg" xmlns:xlink="http://www.w3.org/1999/xlink" width="944" zoomAndPan="magnify" viewBox="0 0 708 275.999989" height="368" preserveAspectRatio="xMidYMid meet" version="1.0"><defs><filter x="0%" y="0%" width="100%" height="100%" id="1a8a0dd17f"><feColorMatrix values="0 0 0 0 1 0 0 0 0 1 0 0 0 0 1 0 0 0 1 0" color-interpolation-filters="sRGB"/></filter><g/><mask id="7d3050d566"><g filter="url(#1a8a0dd17f)"><rect x="-70.8" width="849.6" fill="#000000" y="-27.599999" height="331.199987" fill-opacity="0.14"/></g></mask><clipPath id="ff7c1e651c"><path d="M 0 0 L 708 0 L 708 276 L 0 276 Z M 0 0 " clip-rule="nonzero"/></clipPath><clipPath id="6a19169171"><rect x="0" width="708" y="0" height="276"/></clipPath></defs><g mask="url(#7d3050d566)"><g><g clip-path="url(#6a19169171)"><g clip-path="url(#ff7c1e651c)"><path fill="#cccccc" d="M 237.855469 -91.6875 C 87.726562 -39.265625 -22.578125 100.628906 -29.25 269.085938 C -30.921875 311.382812 -25.917969 352.40625 -15.214844 391.136719 L -13.953125 390.707031 C -24.511719 352.542969 -29.328125 312.070312 -27.460938 270.316406 C -27.054688 261.222656 -26.316406 252.226562 -25.300781 243.308594 C 5.480469 248.257812 36.792969 251.425781 68.546875 252.796875 C 71.449219 288.121094 78.054688 322.808594 87.800781 356.148438 L 88.714844 355.839844 C 79 322.644531 72.542969 288.09375 69.859375 252.859375 C 95.90625 253.941406 122.25 253.804688 148.8125 252.355469 C 166.578125 251.386719 184.15625 249.84375 201.578125 247.765625 C 206.691406 269.238281 212.570312 290.558594 219.152344 311.542969 L 219.675781 311.363281 C 213.105469 290.421875 207.234375 269.125 202.175781 247.679688 C 256.949219 241.109375 309.9375 229.148438 360.613281 212.359375 L 387.308594 288.128906 L 361.875 211.933594 C 411.328125 195.460938 458.589844 174.414062 503.167969 149.285156 C 511.511719 168.003906 519.367188 187.332031 526.621094 207.113281 L 527.144531 206.9375 C 519.878906 187.125 512.015625 167.761719 503.691406 148.988281 C 539.582031 128.726562 573.738281 105.835938 605.90625 80.574219 C 622.507812 107.078125 636.882812 135.648438 648.570312 165.695312 L 649.550781 165.363281 C 637.804688 135.183594 623.457031 106.457031 606.921875 79.761719 C 628.691406 62.613281 649.5625 44.375 669.429688 25.144531 C 698.074219 57.636719 721.300781 94.839844 737.769531 135.402344 L 739.070312 134.960938 C 681.933594 -5.601562 546.65625 -107.171875 385.113281 -113.554688 C 344.464844 -115.164062 305.011719 -110.628906 267.621094 -100.785156 C 264.417969 -100.023438 261.25 -99.191406 258.101562 -98.292969 C 255.667969 -97.710938 253.273438 -96.980469 250.9375 -96.132812 C 250.75 -96.066406 250.574219 -95.976562 250.386719 -95.90625 C 248.722656 -95.367188 247.046875 -94.832031 245.394531 -94.253906 C 245.070312 -94.136719 244.75 -94 244.425781 -93.882812 C 242.234375 -93.160156 240.03125 -92.453125 237.859375 -91.691406 Z M 251.128906 -89.234375 C 252.082031 -89.535156 253.035156 -89.832031 253.992188 -90.128906 L 270.101562 -44.464844 C 246.339844 -36.816406 222.394531 -30.902344 198.40625 -26.644531 C 210.34375 -58.527344 228.285156 -80.152344 251.128906 -89.234375 Z M 260.339844 -92.050781 C 260.921875 -92.21875 261.511719 -92.363281 262.09375 -92.527344 C 278.609375 -96.007812 297.296875 -93.5625 317.863281 -84.375 C 325.152344 -81.121094 332.476562 -77.082031 339.820312 -72.363281 C 320.109375 -62.855469 299.644531 -54.421875 278.4375 -47.21875 C 277.5 -46.898438 276.558594 -46.613281 275.621094 -46.300781 Z M 223.789062 -78.191406 C 211.511719 -65.648438 201.558594 -48.023438 194.265625 -25.941406 C 179.03125 -23.359375 163.765625 -21.453125 148.542969 -20.1875 C 170.195312 -44.777344 195.558594 -64.425781 223.789062 -78.191406 Z M 290.421875 -98.59375 C 312.269531 -101.691406 335.152344 -101.691406 358.816406 -98.285156 C 366.109375 -97.238281 373.347656 -95.859375 380.539062 -94.210938 C 368.574219 -87.117188 356.273438 -80.429688 343.648438 -74.214844 C 334.457031 -80.636719 325.257812 -85.972656 316.140625 -90.128906 C 307.207031 -94.199219 298.625 -97.003906 290.421875 -98.59375 Z M 184.421875 -61.339844 C 168.695312 -49.46875 154.199219 -35.492188 141.191406 -19.605469 C 133.972656 -19.105469 126.773438 -18.769531 119.570312 -18.558594 C 139.679688 -34.800781 161.398438 -49.15625 184.421875 -61.339844 Z M 336.378906 -106.304688 C 352.859375 -107.777344 369.601562 -108.292969 386.550781 -107.707031 C 391.378906 -107.539062 396.191406 -107.269531 400.972656 -106.9375 C 396.289062 -103.867188 391.542969 -100.855469 386.75 -97.921875 C 377.011719 -100.523438 367.15625 -102.59375 357.238281 -104.082031 C 350.214844 -105.136719 343.257812 -105.847656 336.378906 -106.304688 Z M 113.273438 -13.371094 C 121.160156 -13.496094 129.066406 -13.792969 136.980469 -14.269531 C 122.160156 4.773438 109.359375 26.355469 98.90625 50.109375 C 84.25 49.5625 69.675781 48.480469 55.21875 46.886719 C 72.410156 24.84375 91.882812 4.636719 113.269531 -13.371094 Z M 409.246094 -106.269531 C 442.296875 -103.277344 474.058594 -96.320312 504.101562 -85.867188 C 493.421875 -77.109375 482.417969 -68.664062 471.109375 -60.625 C 446.359375 -76.125 420.320312 -88.152344 393.4375 -96.054688 C 398.773438 -99.378906 404.050781 -102.777344 409.246094 -106.269531 Z M 143.835938 -14.683594 C 143.839844 -14.691406 143.863281 -14.6875 143.867188 -14.695312 C 160.070312 -15.875 176.308594 -17.804688 192.550781 -20.476562 C 186.652344 -0.882812 182.722656 21.945312 180.953125 47.574219 C 154.792969 50.160156 128.769531 51.023438 103.011719 50.238281 C 114.25 26.132812 127.960938 4.355469 143.832031 -14.683594 Z M 387.640625 -92.484375 C 415.484375 -85.3125 442.457031 -73.757812 468.046875 -58.453125 C 447.242188 -43.863281 425.398438 -30.566406 402.628906 -18.605469 C 384.808594 -39.679688 366.566406 -57.355469 348.304688 -70.835938 C 361.796875 -77.554688 374.917969 -84.777344 387.640625 -92.484375 Z M 196.460938 -21.144531 C 221.621094 -25.476562 246.769531 -31.628906 271.746094 -39.679688 L 294.65625 25.292969 C 276.164062 30.789062 257.246094 35.472656 237.914062 39.25 C 219.585938 42.828125 201.265625 45.507812 183.027344 47.375 C 185.238281 21.339844 189.8125 -1.652344 196.460938 -21.144531 Z M 344.730469 -69.117188 C 363.578125 -56.21875 382.433594 -38.761719 400.832031 -17.644531 C 368.691406 -0.90625 334.695312 13.070312 299.050781 23.957031 L 277.191406 -41.488281 C 278.121094 -41.800781 279.046875 -42.078125 279.976562 -42.394531 C 302.40625 -50.011719 323.996094 -58.980469 344.734375 -69.121094 Z M 53.25 49.425781 C 68.003906 50.976562 82.886719 51.980469 97.851562 52.457031 C 85.730469 80.582031 76.914062 111.699219 71.839844 145.183594 C 48.34375 143.921875 25.039062 141.457031 2 137.863281 C 15.234375 106.0625 32.554688 76.402344 53.25 49.425781 Z M 506.488281 -85.039062 C 535.359375 -74.785156 562.585938 -61.296875 587.785156 -45.054688 C 572.847656 -30.800781 557.226562 -17.1875 540.988281 -4.257812 C 519.804688 -25.625 496.933594 -44.246094 472.792969 -59.558594 C 484.332031 -67.691406 495.589844 -76.171875 506.488281 -85.035156 Z M 101.917969 52.5625 C 127.980469 53.21875 154.328125 52.242188 180.820312 49.496094 C 179.03125 77.332031 179.773438 108.410156 183.277344 142.210938 C 146.632812 146.15625 110.160156 147.136719 74.117188 145.316406 C 79.652344 111.734375 89.113281 80.609375 101.917969 52.5625 Z M 469.765625 -57.433594 C 494.402344 -42.503906 517.707031 -24.113281 539.269531 -2.890625 C 512.675781 18.144531 484.414062 37.351562 454.566406 54.453125 C 438.332031 27.757812 421.222656 3.546875 403.679688 -17.355469 C 426.683594 -29.375 448.726562 -42.789062 469.765625 -57.433594 Z M 182.894531 49.261719 C 200.585938 47.367188 218.351562 44.738281 236.140625 41.261719 C 256.265625 37.332031 275.929688 32.4375 295.171875 26.6875 L 325.167969 111.8125 C 309.464844 116.921875 293.480469 121.515625 277.195312 125.5625 C 246.261719 133.246094 215.242188 138.707031 184.367188 142.078125 C 181.089844 108.140625 180.667969 77.007812 182.890625 49.261719 Z M 401.910156 -16.445312 C 419.753906 4.1875 437.160156 28.277344 453.640625 54.960938 C 414.375 77.382812 372.421875 96.207031 328.085938 110.855469 L 299.53125 25.363281 C 335.339844 14.371094 369.554688 0.328125 401.910156 -16.445312 Z M 0.609375 141.351562 C 23.945312 144.824219 47.566406 147.175781 71.371094 148.28125 C 67.367188 176.109375 65.949219 205.542969 67.445312 236.246094 C 67.671875 240.945312 67.984375 245.613281 68.347656 250.289062 C 36.785156 248.742188 5.636719 245.335938 -24.964844 240.1875 C -20.746094 205.644531 -11.996094 172.5 0.613281 141.351562 Z M 589.984375 -43.652344 C 618.394531 -25.074219 644.136719 -2.9375 666.652344 22.0625 C 647.082031 41.324219 626.5 59.570312 605.03125 76.769531 C 586.636719 47.539062 565.632812 20.769531 542.570312 -2.726562 C 559.019531 -15.691406 574.84375 -29.363281 589.984375 -43.652344 Z M 73.632812 148.363281 C 109.894531 149.933594 146.617188 148.695312 183.515625 144.507812 C 185.234375 160.566406 187.5625 177.21875 190.550781 194.425781 C 193.527344 211.582031 197.070312 228.746094 201.09375 245.8125 C 184.722656 247.722656 168.179688 249.121094 151.492188 250.03125 C 123.960938 251.53125 96.679688 251.605469 69.691406 250.328125 C 69.390625 246.089844 69.105469 241.832031 68.914062 237.574219 C 67.523438 206.398438 69.210938 176.535156 73.632812 148.363281 Z M 540.855469 -1.332031 C 564.210938 21.898438 585.472656 48.453125 604.011719 77.570312 C 572.113281 103.039062 538.234375 126.121094 502.574219 146.542969 C 488.128906 114.21875 472.28125 83.742188 455.464844 55.933594 C 485.507812 38.8125 514.03125 19.679688 540.855469 -1.332031 Z M 184.5625 144.382812 C 214.726562 140.914062 244.984375 135.492188 275.238281 127.972656 C 292.375 123.714844 309.191406 118.828125 325.710938 113.414062 L 359.917969 210.476562 C 309.363281 227.339844 256.441406 239.289062 201.691406 245.722656 C 197.828125 229.175781 194.449219 212.546875 191.601562 195.90625 C 188.558594 178.113281 186.222656 160.925781 184.570312 144.382812 Z M 454.539062 56.445312 C 471.523438 84.105469 487.519531 114.527344 502.046875 146.84375 C 457.660156 172.21875 410.570312 193.476562 361.214844 210.035156 L 328.632812 112.460938 C 373.03125 97.699219 415.109375 78.839844 454.542969 56.445312 Z M 454.539062 56.445312 " fill-opacity="1" fill-rule="nonzero"/></g></g></g></g><g fill="#000000" fill-opacity="1"><g transform="translate(27.651812, 224.346925)"><g><path d="M 216.328125 -132.96875 C 217.234375 -132.96875 218 -132.648438 218.625 -132.015625 C 219.257812 -131.390625 219.578125 -130.628906 219.578125 -129.734375 C 219.578125 -128.828125 219.242188 -128.046875 218.578125 -127.390625 C 214.203125 -123.179688 209.429688 -118.226562 204.265625 -112.53125 C 199.109375 -106.832031 193.660156 -100.601562 187.921875 -93.84375 C 182.191406 -87.09375 176.34375 -79.96875 170.375 -72.46875 C 164.40625 -64.96875 158.414062 -57.285156 152.40625 -49.421875 C 157.15625 -49.359375 161.835938 -49.222656 166.453125 -49.015625 C 171.078125 -48.804688 175.671875 -48.550781 180.234375 -48.25 C 181.078125 -48.1875 181.796875 -47.835938 182.390625 -47.203125 C 182.992188 -46.578125 183.296875 -45.847656 183.296875 -45.015625 C 183.296875 -44.109375 182.976562 -43.335938 182.34375 -42.703125 C 181.71875 -42.078125 180.953125 -41.765625 180.046875 -41.765625 L 179.875 -41.765625 C 174.65625 -42.066406 169.429688 -42.335938 164.203125 -42.578125 C 158.984375 -42.816406 153.734375 -42.96875 148.453125 -43.03125 C 147.910156 -43.09375 147.429688 -42.851562 147.015625 -42.3125 C 141.066406 -34.382812 135.753906 -27.132812 131.078125 -20.5625 C 126.398438 -14 122.15625 -7.847656 118.34375 -2.109375 C 114.53125 3.617188 111.003906 9.179688 107.765625 14.578125 C 104.523438 19.984375 101.34375 25.507812 98.21875 31.15625 C 99.351562 32.164062 99.472656 33.453125 98.578125 35.015625 C 97.253906 37.234375 95.945312 38.941406 94.65625 40.140625 C 93.375 41.347656 92.191406 41.953125 91.109375 41.953125 C 89.242188 41.953125 88.160156 41.242188 87.859375 39.828125 C 87.566406 38.421875 88.078125 36.425781 89.390625 33.84375 C 92.210938 28.269531 95.210938 22.707031 98.390625 17.15625 C 101.578125 11.601562 105.117188 5.84375 109.015625 -0.125 C 112.921875 -6.101562 117.332031 -12.554688 122.25 -19.484375 C 127.175781 -26.421875 132.757812 -34.0625 139 -42.40625 C 139.238281 -42.757812 139.328125 -42.984375 139.265625 -43.078125 C 139.210938 -43.171875 139.003906 -43.21875 138.640625 -43.21875 C 124.359375 -43.332031 110.253906 -43.101562 96.328125 -42.53125 C 82.398438 -41.96875 69.132812 -41.144531 56.53125 -40.0625 C 55.875 -40 55.363281 -39.695312 55 -39.15625 C 49.90625 -32.019531 44.910156 -24.925781 40.015625 -17.875 C 35.117188 -10.820312 30.4375 -4.039062 25.96875 2.46875 C 21.5 8.988281 17.34375 15.097656 13.5 20.796875 C 12.90625 21.753906 12.003906 22.234375 10.796875 22.234375 C 9.898438 22.234375 9.132812 21.914062 8.5 21.28125 C 7.875 20.65625 7.5625 19.894531 7.5625 19 C 7.5625 18.332031 7.742188 17.726562 8.109375 17.1875 C 13.441406 9.207031 19.410156 0.445312 26.015625 -9.09375 C 32.617188 -18.632812 39.460938 -28.382812 46.546875 -38.34375 C 46.722656 -38.644531 46.796875 -38.84375 46.765625 -38.9375 C 46.734375 -39.03125 46.507812 -39.046875 46.09375 -38.984375 C 42.25 -38.617188 38.507812 -38.210938 34.875 -37.765625 C 31.25 -37.316406 27.726562 -36.851562 24.3125 -36.375 L 23.859375 -36.375 C 22.953125 -36.375 22.179688 -36.6875 21.546875 -37.3125 C 20.921875 -37.945312 20.609375 -38.710938 20.609375 -39.609375 C 20.609375 -40.453125 20.878906 -41.171875 21.421875 -41.765625 C 21.960938 -42.367188 22.625 -42.734375 23.40625 -42.859375 C 27.726562 -43.453125 32.195312 -44.019531 36.8125 -44.5625 C 41.4375 -45.101562 46.210938 -45.582031 51.140625 -46 C 51.734375 -46.0625 52.210938 -46.363281 52.578125 -46.90625 C 58.453125 -55.0625 64.316406 -63.113281 70.171875 -71.0625 C 76.023438 -79.019531 81.726562 -86.613281 87.28125 -93.84375 C 92.832031 -101.082031 98.097656 -107.71875 103.078125 -113.75 C 108.054688 -119.78125 112.554688 -124.957031 116.578125 -129.28125 C 117.117188 -129.9375 117.898438 -130.265625 118.921875 -130.265625 C 119.828125 -130.265625 120.59375 -129.945312 121.21875 -129.3125 C 121.851562 -128.6875 122.171875 -127.925781 122.171875 -127.03125 C 122.171875 -126.125 121.867188 -125.375 121.265625 -124.78125 C 117.484375 -120.757812 113.265625 -115.925781 108.609375 -110.28125 C 103.960938 -104.632812 99.039062 -98.453125 93.84375 -91.734375 C 88.65625 -85.015625 83.300781 -77.914062 77.78125 -70.4375 C 72.257812 -62.96875 66.707031 -55.363281 61.125 -47.625 C 60.882812 -47.320312 60.796875 -47.125 60.859375 -47.03125 C 60.921875 -46.945312 61.128906 -46.90625 61.484375 -46.90625 C 74.148438 -47.988281 87.441406 -48.769531 101.359375 -49.25 C 115.285156 -49.726562 129.332031 -49.847656 143.5 -49.609375 C 144.15625 -49.609375 144.632812 -49.847656 144.9375 -50.328125 C 151.175781 -58.546875 157.414062 -66.570312 163.65625 -74.40625 C 169.90625 -82.238281 176.015625 -89.707031 181.984375 -96.8125 C 187.953125 -103.925781 193.648438 -110.46875 199.078125 -116.4375 C 204.515625 -122.414062 209.515625 -127.625 214.078125 -132.0625 C 214.796875 -132.664062 215.546875 -132.96875 216.328125 -132.96875 Z M 216.328125 -132.96875 "/></g></g></g><g fill="#000000" fill-opacity="1"><g transform="translate(219.496247, 224.346925)"><g><path d="M 92.90625 -36.546875 C 93.800781 -36.546875 94.5625 -36.226562 95.1875 -35.59375 C 95.820312 -34.96875 96.140625 -34.207031 96.140625 -33.3125 C 96.140625 -32.164062 95.691406 -31.296875 94.796875 -30.703125 C 89.035156 -26.492188 82.941406 -22.648438 76.515625 -19.171875 C 70.097656 -15.691406 63.707031 -12.628906 57.34375 -9.984375 C 50.976562 -7.347656 44.945312 -5.144531 39.25 -3.375 C 33.550781 -1.601562 28.476562 -0.253906 24.03125 0.671875 C 19.59375 1.609375 16.113281 2.078125 13.59375 2.078125 C 7.226562 2.078125 2.289062 0.90625 -1.21875 -1.4375 C -4.726562 -3.78125 -6.484375 -7.082031 -6.484375 -11.34375 C -6.484375 -14.164062 -5.75 -17.164062 -4.28125 -20.34375 C -2.8125 -23.53125 -0.847656 -26.632812 1.609375 -29.65625 C 4.078125 -32.6875 6.828125 -35.445312 9.859375 -37.9375 C 12.890625 -40.4375 15.976562 -42.421875 19.125 -43.890625 C 22.28125 -45.359375 25.269531 -46.09375 28.09375 -46.09375 C 30.613281 -46.09375 32.632812 -45.429688 34.15625 -44.109375 C 35.6875 -42.785156 36.453125 -41.046875 36.453125 -38.890625 C 36.453125 -37.390625 35.925781 -35.90625 34.875 -34.4375 C 33.832031 -32.96875 32.425781 -31.613281 30.65625 -30.375 C 28.882812 -29.144531 26.960938 -28.15625 24.890625 -27.40625 C 22.816406 -26.65625 20.734375 -26.28125 18.640625 -26.28125 C 14.492188 -26.28125 11.160156 -26.820312 8.640625 -27.90625 C 5.941406 -24.96875 3.828125 -22.023438 2.296875 -19.078125 C 0.765625 -16.140625 0 -13.5625 0 -11.34375 C 0 -6.71875 4.53125 -4.40625 13.59375 -4.40625 C 15.9375 -4.40625 19.207031 -4.835938 23.40625 -5.703125 C 27.601562 -6.578125 32.398438 -7.867188 37.796875 -9.578125 C 43.203125 -11.296875 48.953125 -13.429688 55.046875 -15.984375 C 61.140625 -18.535156 67.257812 -21.472656 73.40625 -24.796875 C 79.5625 -28.128906 85.429688 -31.835938 91.015625 -35.921875 C 91.492188 -36.335938 92.125 -36.546875 92.90625 -36.546875 Z M 29.984375 -38.890625 C 29.984375 -39.128906 29.875 -39.304688 29.65625 -39.421875 C 29.445312 -39.546875 28.925781 -39.609375 28.09375 -39.609375 C 26.226562 -39.609375 24.066406 -39.035156 21.609375 -37.890625 C 19.148438 -36.753906 16.628906 -35.140625 14.046875 -33.046875 C 15.304688 -32.859375 16.835938 -32.765625 18.640625 -32.765625 C 20.921875 -32.765625 22.898438 -33.140625 24.578125 -33.890625 C 26.253906 -34.640625 27.570312 -35.492188 28.53125 -36.453125 C 29.5 -37.421875 29.984375 -38.234375 29.984375 -38.890625 Z M 29.984375 -38.890625 "/></g></g></g><g fill="#000000" fill-opacity="1"><g transform="translate(303.220026, 224.346925)"><g><path d="M 199.5 -200.84375 C 199.5 -198.207031 198.101562 -194.609375 195.3125 -190.046875 C 192.519531 -185.484375 188.570312 -180.210938 183.46875 -174.234375 C 178.375 -168.265625 172.375 -161.785156 165.46875 -154.796875 C 158.5625 -147.804688 151 -140.5 142.78125 -132.875 C 134.5625 -125.25 125.90625 -117.519531 116.8125 -109.6875 C 107.71875 -101.863281 98.425781 -94.125 88.9375 -86.46875 C 79.457031 -78.8125 70.035156 -71.441406 60.671875 -64.359375 C 51.316406 -57.285156 42.238281 -50.703125 33.4375 -44.609375 C 24.644531 -38.515625 16.378906 -33.128906 8.640625 -28.453125 C -0.835938 -13.085938 -5.578125 -1.53125 -5.578125 6.21875 C -5.578125 8.675781 -5.019531 10.335938 -3.90625 11.203125 C -2.800781 12.078125 -0.660156 12.515625 2.515625 12.515625 C 5.097656 12.515625 8.726562 11.703125 13.40625 10.078125 C 18.09375 8.460938 23.539062 6.179688 29.75 3.234375 C 35.96875 0.296875 42.707031 -3.179688 49.96875 -7.203125 C 57.226562 -11.222656 64.742188 -15.648438 72.515625 -20.484375 C 80.285156 -25.316406 88.039062 -30.398438 95.78125 -35.734375 C 96.257812 -36.160156 96.890625 -36.375 97.671875 -36.375 C 98.578125 -36.375 99.34375 -36.054688 99.96875 -35.421875 C 100.601562 -34.796875 100.921875 -34.03125 100.921875 -33.125 C 100.921875 -31.988281 100.441406 -31.085938 99.484375 -30.421875 C 93.722656 -26.460938 87.703125 -22.488281 81.421875 -18.5 C 75.148438 -14.507812 68.847656 -10.664062 62.515625 -6.96875 C 56.191406 -3.28125 50.023438 0.132812 44.015625 3.28125 C 38.015625 6.4375 32.375 9.179688 27.09375 11.515625 C 21.8125 13.859375 17.070312 15.691406 12.875 17.015625 C 8.675781 18.335938 5.222656 19 2.515625 19 C -2.398438 19 -6.054688 17.960938 -8.453125 15.890625 C -10.859375 13.816406 -12.0625 10.59375 -12.0625 6.21875 C -12.0625 1.832031 -10.769531 -3.460938 -8.1875 -9.671875 C -5.613281 -15.890625 -2.003906 -22.765625 2.640625 -30.296875 C 7.296875 -37.828125 12.773438 -45.804688 19.078125 -54.234375 C 25.378906 -62.671875 32.28125 -71.328125 39.78125 -80.203125 C 47.289062 -89.085938 55.140625 -97.988281 63.328125 -106.90625 C 71.523438 -115.820312 79.882812 -124.523438 88.40625 -133.015625 C 96.925781 -141.503906 105.34375 -149.585938 113.65625 -157.265625 C 121.96875 -164.953125 129.992188 -172.003906 137.734375 -178.421875 C 145.484375 -184.847656 152.671875 -190.414062 159.296875 -195.125 C 165.929688 -199.84375 171.8125 -203.503906 176.9375 -206.109375 C 182.070312 -208.722656 186.203125 -210.03125 189.328125 -210.03125 C 192.503906 -210.03125 194.992188 -209.21875 196.796875 -207.59375 C 198.597656 -205.976562 199.5 -203.726562 199.5 -200.84375 Z M 189.328125 -203.546875 C 186.679688 -203.546875 183.148438 -202.4375 178.734375 -200.21875 C 174.328125 -198 169.210938 -194.847656 163.390625 -190.765625 C 157.578125 -186.679688 151.273438 -181.847656 144.484375 -176.265625 C 137.703125 -170.679688 130.59375 -164.53125 123.15625 -157.8125 C 115.71875 -151.09375 108.140625 -143.953125 100.421875 -136.390625 C 92.710938 -128.828125 85.03125 -121.039062 77.375 -113.03125 C 69.726562 -105.019531 62.316406 -96.929688 55.140625 -88.765625 C 47.960938 -80.597656 41.191406 -72.550781 34.828125 -64.625 C 28.472656 -56.707031 22.71875 -49.085938 17.5625 -41.765625 C 25.601562 -46.992188 33.941406 -52.726562 42.578125 -58.96875 C 51.222656 -65.207031 59.972656 -71.773438 68.828125 -78.671875 C 77.679688 -85.578125 86.441406 -92.628906 95.109375 -99.828125 C 103.785156 -107.035156 112.21875 -114.222656 120.40625 -121.390625 C 128.601562 -128.566406 136.347656 -135.578125 143.640625 -142.421875 C 150.929688 -149.265625 157.59375 -155.757812 163.625 -161.90625 C 169.65625 -168.0625 174.859375 -173.6875 179.234375 -178.78125 C 183.617188 -183.882812 187.007812 -188.328125 189.40625 -192.109375 C 191.8125 -195.890625 193.015625 -198.800781 193.015625 -200.84375 C 193.015625 -201.863281 192.757812 -202.566406 192.25 -202.953125 C 191.738281 -203.347656 190.765625 -203.546875 189.328125 -203.546875 Z M 189.328125 -203.546875 "/></g></g></g><g fill="#000000" fill-opacity="1"><g transform="translate(391.895205, 224.346925)"><g><path d="M 199.5 -200.84375 C 199.5 -198.207031 198.101562 -194.609375 195.3125 -190.046875 C 192.519531 -185.484375 188.570312 -180.210938 183.46875 -174.234375 C 178.375 -168.265625 172.375 -161.785156 165.46875 -154.796875 C 158.5625 -147.804688 151 -140.5 142.78125 -132.875 C 134.5625 -125.25 125.90625 -117.519531 116.8125 -109.6875 C 107.71875 -101.863281 98.425781 -94.125 88.9375 -86.46875 C 79.457031 -78.8125 70.035156 -71.441406 60.671875 -64.359375 C 51.316406 -57.285156 42.238281 -50.703125 33.4375 -44.609375 C 24.644531 -38.515625 16.378906 -33.128906 8.640625 -28.453125 C -0.835938 -13.085938 -5.578125 -1.53125 -5.578125 6.21875 C -5.578125 8.675781 -5.019531 10.335938 -3.90625 11.203125 C -2.800781 12.078125 -0.660156 12.515625 2.515625 12.515625 C 5.097656 12.515625 8.726562 11.703125 13.40625 10.078125 C 18.09375 8.460938 23.539062 6.179688 29.75 3.234375 C 35.96875 0.296875 42.707031 -3.179688 49.96875 -7.203125 C 57.226562 -11.222656 64.742188 -15.648438 72.515625 -20.484375 C 80.285156 -25.316406 88.039062 -30.398438 95.78125 -35.734375 C 96.257812 -36.160156 96.890625 -36.375 97.671875 -36.375 C 98.578125 -36.375 99.34375 -36.054688 99.96875 -35.421875 C 100.601562 -34.796875 100.921875 -34.03125 100.921875 -33.125 C 100.921875 -31.988281 100.441406 -31.085938 99.484375 -30.421875 C 93.722656 -26.460938 87.703125 -22.488281 81.421875 -18.5 C 75.148438 -14.507812 68.847656 -10.664062 62.515625 -6.96875 C 56.191406 -3.28125 50.023438 0.132812 44.015625 3.28125 C 38.015625 6.4375 32.375 9.179688 27.09375 11.515625 C 21.8125 13.859375 17.070312 15.691406 12.875 17.015625 C 8.675781 18.335938 5.222656 19 2.515625 19 C -2.398438 19 -6.054688 17.960938 -8.453125 15.890625 C -10.859375 13.816406 -12.0625 10.59375 -12.0625 6.21875 C -12.0625 1.832031 -10.769531 -3.460938 -8.1875 -9.671875 C -5.613281 -15.890625 -2.003906 -22.765625 2.640625 -30.296875 C 7.296875 -37.828125 12.773438 -45.804688 19.078125 -54.234375 C 25.378906 -62.671875 32.28125 -71.328125 39.78125 -80.203125 C 47.289062 -89.085938 55.140625 -97.988281 63.328125 -106.90625 C 71.523438 -115.820312 79.882812 -124.523438 88.40625 -133.015625 C 96.925781 -141.503906 105.34375 -149.585938 113.65625 -157.265625 C 121.96875 -164.953125 129.992188 -172.003906 137.734375 -178.421875 C 145.484375 -184.847656 152.671875 -190.414062 159.296875 -195.125 C 165.929688 -199.84375 171.8125 -203.503906 176.9375 -206.109375 C 182.070312 -208.722656 186.203125 -210.03125 189.328125 -210.03125 C 192.503906 -210.03125 194.992188 -209.21875 196.796875 -207.59375 C 198.597656 -205.976562 199.5 -203.726562 199.5 -200.84375 Z M 189.328125 -203.546875 C 186.679688 -203.546875 183.148438 -202.4375 178.734375 -200.21875 C 174.328125 -198 169.210938 -194.847656 163.390625 -190.765625 C 157.578125 -186.679688 151.273438 -181.847656 144.484375 -176.265625 C 137.703125 -170.679688 130.59375 -164.53125 123.15625 -157.8125 C 115.71875 -151.09375 108.140625 -143.953125 100.421875 -136.390625 C 92.710938 -128.828125 85.03125 -121.039062 77.375 -113.03125 C 69.726562 -105.019531 62.316406 -96.929688 55.140625 -88.765625 C 47.960938 -80.597656 41.191406 -72.550781 34.828125 -64.625 C 28.472656 -56.707031 22.71875 -49.085938 17.5625 -41.765625 C 25.601562 -46.992188 33.941406 -52.726562 42.578125 -58.96875 C 51.222656 -65.207031 59.972656 -71.773438 68.828125 -78.671875 C 77.679688 -85.578125 86.441406 -92.628906 95.109375 -99.828125 C 103.785156 -107.035156 112.21875 -114.222656 120.40625 -121.390625 C 128.601562 -128.566406 136.347656 -135.578125 143.640625 -142.421875 C 150.929688 -149.265625 157.59375 -155.757812 163.625 -161.90625 C 169.65625 -168.0625 174.859375 -173.6875 179.234375 -178.78125 C 183.617188 -183.882812 187.007812 -188.328125 189.40625 -192.109375 C 191.8125 -195.890625 193.015625 -198.800781 193.015625 -200.84375 C 193.015625 -201.863281 192.757812 -202.566406 192.25 -202.953125 C 191.738281 -203.347656 190.765625 -203.546875 189.328125 -203.546875 Z M 189.328125 -203.546875 "/></g></g></g><g fill="#000000" fill-opacity="1"><g transform="translate(480.570384, 224.346925)"><g><path d="M 97.3125 -36.546875 C 98.15625 -36.546875 98.90625 -36.210938 99.5625 -35.546875 C 100.226562 -34.890625 100.5625 -34.144531 100.5625 -33.3125 C 100.5625 -32.050781 99.988281 -31.085938 98.84375 -30.421875 C 93.507812 -27.367188 87.628906 -25.179688 81.203125 -23.859375 C 74.785156 -22.535156 68.15625 -22.066406 61.3125 -22.453125 C 54.46875 -22.847656 47.679688 -24.066406 40.953125 -26.109375 C 34.234375 -28.148438 27.84375 -31 21.78125 -34.65625 C 22.207031 -31.300781 22.070312 -27.804688 21.375 -24.171875 C 20.6875 -20.535156 19.546875 -17.019531 17.953125 -13.625 C 16.367188 -10.238281 14.476562 -7.195312 12.28125 -4.5 C 10.09375 -1.800781 7.738281 0.34375 5.21875 1.9375 C 2.695312 3.53125 0.117188 4.328125 -2.515625 4.328125 C -5.097656 4.328125 -7.179688 3.378906 -8.765625 1.484375 C -10.359375 -0.398438 -11.15625 -2.90625 -11.15625 -6.03125 C -11.15625 -9.8125 -10.085938 -13.769531 -7.953125 -17.90625 C -5.828125 -22.050781 -2.875 -26.070312 0.90625 -29.96875 C 4.6875 -33.875 9.035156 -37.296875 13.953125 -40.234375 C 14.128906 -40.421875 14.28125 -40.601562 14.40625 -40.78125 C 14.707031 -41.863281 15.367188 -42.671875 16.390625 -43.203125 C 17.410156 -43.742188 18.457031 -43.867188 19.53125 -43.578125 C 19.832031 -43.515625 20.070312 -43.515625 20.25 -43.578125 C 21.15625 -44.054688 22.101562 -44.472656 23.09375 -44.828125 C 24.082031 -45.191406 25.085938 -45.550781 26.109375 -45.90625 C 26.585938 -46.03125 26.945312 -46.09375 27.1875 -46.09375 C 28.03125 -46.09375 28.78125 -45.757812 29.4375 -45.09375 C 30.09375 -44.4375 30.421875 -43.691406 30.421875 -42.859375 C 30.421875 -41.234375 29.671875 -40.179688 28.171875 -39.703125 C 27.992188 -39.640625 27.816406 -39.59375 27.640625 -39.5625 C 27.460938 -39.53125 27.28125 -39.457031 27.09375 -39.34375 C 27.03125 -39.34375 26.984375 -39.328125 26.953125 -39.296875 C 26.929688 -39.265625 26.921875 -39.25 26.921875 -39.25 C 32.378906 -36.125 38.125 -33.691406 44.15625 -31.953125 C 50.1875 -30.210938 56.265625 -29.191406 62.390625 -28.890625 C 68.515625 -28.597656 74.410156 -29.035156 80.078125 -30.203125 C 85.742188 -31.367188 90.953125 -33.304688 95.703125 -36.015625 C 96.179688 -36.367188 96.71875 -36.546875 97.3125 -36.546875 Z M -2.515625 -2.15625 C -0.773438 -2.15625 1.003906 -2.816406 2.828125 -4.140625 C 4.660156 -5.460938 6.382812 -7.234375 8 -9.453125 C 9.625 -11.671875 11.035156 -14.160156 12.234375 -16.921875 C 13.441406 -19.679688 14.34375 -22.5 14.9375 -25.375 C 15.539062 -28.257812 15.691406 -30.992188 15.390625 -33.578125 C 11.429688 -30.992188 7.953125 -28.113281 4.953125 -24.9375 C 1.953125 -21.757812 -0.398438 -18.535156 -2.109375 -15.265625 C -3.828125 -11.992188 -4.6875 -8.914062 -4.6875 -6.03125 C -4.6875 -3.445312 -3.960938 -2.15625 -2.515625 -2.15625 Z M -2.515625 -2.15625 "/></g></g></g><g fill="#000000" fill-opacity="1"><g transform="translate(568.705402, 224.346925)"><g><path d="M 25.65625 -22.59375 C 24.757812 -22.59375 23.992188 -22.90625 23.359375 -23.53125 C 22.734375 -24.164062 22.421875 -24.9375 22.421875 -25.84375 C 22.421875 -26.5625 22.628906 -27.21875 23.046875 -27.8125 C 30.429688 -37.71875 37.691406 -47.234375 44.828125 -56.359375 C 51.972656 -65.484375 59.191406 -74.425781 66.484375 -83.1875 C 73.773438 -91.945312 81.257812 -100.78125 88.9375 -109.6875 C 96.625 -118.601562 104.695312 -127.773438 113.15625 -137.203125 C 113.820312 -137.921875 114.632812 -138.28125 115.59375 -138.28125 C 116.488281 -138.28125 117.25 -137.960938 117.875 -137.328125 C 118.507812 -136.703125 118.828125 -135.9375 118.828125 -135.03125 C 118.828125 -134.257812 118.5625 -133.539062 118.03125 -132.875 C 109.625 -123.457031 101.578125 -114.320312 93.890625 -105.46875 C 86.210938 -96.613281 78.753906 -87.816406 71.515625 -79.078125 C 64.285156 -70.347656 57.097656 -61.453125 49.953125 -52.390625 C 42.816406 -43.328125 35.585938 -33.847656 28.265625 -23.953125 C 27.546875 -23.046875 26.675781 -22.59375 25.65625 -22.59375 Z M 10.625 -0.8125 C 9.71875 -0.8125 8.945312 -1.125 8.3125 -1.75 C 7.6875 -2.382812 7.375 -3.148438 7.375 -4.046875 C 7.375 -4.585938 7.523438 -5.160156 7.828125 -5.765625 C 8.671875 -7.140625 9.453125 -8.378906 10.171875 -9.484375 C 10.890625 -10.597656 11.726562 -11.816406 12.6875 -13.140625 C 13.289062 -14.097656 14.160156 -14.578125 15.296875 -14.578125 C 16.203125 -14.578125 16.96875 -14.257812 17.59375 -13.625 C 18.226562 -13 18.546875 -12.238281 18.546875 -11.34375 C 18.546875 -10.625 18.363281 -9.992188 18 -9.453125 C 17.039062 -8.128906 16.226562 -6.941406 15.5625 -5.890625 C 14.90625 -4.847656 14.1875 -3.695312 13.40625 -2.4375 C 12.8125 -1.351562 11.882812 -0.8125 10.625 -0.8125 Z M 10.625 -0.8125 "/></g></g></g></svg>