<svg version="1.2" xmlns="http://www.w3.org/2000/svg" viewBox="0 0 272 111" width="272" height="111">
	<title>gwapocarlo-svg</title>
	<defs>
		<clipPath clipPathUnits="userSpaceOnUse" id="cp1">
			<path d="m184 39h87v32h-87z"/>
		</clipPath>
		<clipPath clipPathUnits="userSpaceOnUse" id="cp2">
			<path d="m183.53 38.93l87.23-1.55 0.6 33.74-87.23 1.56z"/>
		</clipPath>
		<clipPath clipPathUnits="userSpaceOnUse" id="cp3">
			<path d="m183.53 38.93l87.23-1.55 0.6 33.74-87.23 1.56z"/>
		</clipPath>
		<clipPath clipPathUnits="userSpaceOnUse" id="cp4">
			<path d="m38 39h86v32h-86z"/>
		</clipPath>
		<clipPath clipPathUnits="userSpaceOnUse" id="cp5">
			<path d="m36.72 39.17l87.23-1.56 0.6 33.75-87.23 1.55z"/>
		</clipPath>
		<clipPath clipPathUnits="userSpaceOnUse" id="cp6">
			<path d="m36.72 39.17l87.23-1.56 0.6 33.75-87.23 1.55z"/>
		</clipPath>
		<clipPath clipPathUnits="userSpaceOnUse" id="cp7">
			<path d="m177 40h86v33h-86z"/>
		</clipPath>
		<clipPath clipPathUnits="userSpaceOnUse" id="cp8">
			<path d="m176.01 40.34l87.24-1.55 0.6 33.75-87.24 1.55z"/>
		</clipPath>
		<clipPath clipPathUnits="userSpaceOnUse" id="cp9">
			<path d="m176.01 40.34l87.24-1.55 0.6 33.75-87.24 1.55z"/>
		</clipPath>
		<clipPath clipPathUnits="userSpaceOnUse" id="cp10">
			<path d="m112 40h87v32h-87z"/>
		</clipPath>
		<clipPath clipPathUnits="userSpaceOnUse" id="cp11">
			<path d="m111.32 40.22l87.23-1.55 0.61 33.74-87.24 1.56z"/>
		</clipPath>
		<clipPath clipPathUnits="userSpaceOnUse" id="cp12">
			<path d="m111.32 40.22l87.23-1.55 0.61 33.74-87.24 1.56z"/>
		</clipPath>
		<clipPath clipPathUnits="userSpaceOnUse" id="cp13">
			<path d="m1 42h87v32h-87z"/>
		</clipPath>
		<clipPath clipPathUnits="userSpaceOnUse" id="cp14">
			<path d="m0.36 42.2l87.23-1.56 0.6 33.75-87.23 1.56z"/>
		</clipPath>
		<clipPath clipPathUnits="userSpaceOnUse" id="cp15">
			<path d="m0.36 42.2l87.23-1.56 0.6 33.75-87.23 1.56z"/>
		</clipPath>
		<clipPath clipPathUnits="userSpaceOnUse" id="cp16">
			<path d="m0.95 42.06h2.05v36.94h-2.05z"/>
		</clipPath>
		<clipPath clipPathUnits="userSpaceOnUse" id="cp17">
			<path d="m1 42.06h33.07v1.94h-33.07z"/>
		</clipPath>
		<clipPath clipPathUnits="userSpaceOnUse" id="cp18">
			<path d="m270 35.35h1.8v36.69h-1.8z"/>
		</clipPath>
		<clipPath clipPathUnits="userSpaceOnUse" id="cp19">
			<path d="m238.83 70h32.97v2.04h-32.97z"/>
		</clipPath>
	</defs>
	<style>
		.s0 { fill: #7b8c6a } 
		.s1 { fill: #383e30 } 
		.s2 { fill: #ffffff } 
		.s3 { fill: #586447 } 
		.s4 { fill: #4f5b45 } 
	</style>
	<g>
		<g>
			<g>
				<path class="s0" d="m229.5 85.1q1.8 3.1 3.6 4.9 1.7 1.8 4.6 3.3v2.7q-11.3-0.4-24.2-0.4-10 0-19.2 0.4v-2.7q4.2-0.3 5.9-0.8 1.7-0.4 1.7-1.8 0-1.3-1.3-3.5l-19.5-32.9q-1.9-3.2-3.2-4.4-1.3-1.3-3.1-1.5v33.3q0 5.1 0.7 7.4 0.7 2.3 2.6 3.1 1.9 0.8 6.2 1.1v2.7q-7.8-0.4-22.4-0.4-16.3 0-24 0.4v-2.7q4.3-0.3 6.3-1.1 1.9-0.8 2.6-3.1 0.7-2.3 0.7-7.4v-66.6q0-5.2-0.8-7.4-0.7-2.3-2.6-3.1-1.9-0.8-6.2-1.1v-2.7q7.7 0.4 24 0.4 14.5 0 22.4-0.4v2.7q-4.3 0.3-6.2 1.1-2 0.8-2.7 3.1-0.6 2.2-0.6 7.4v30.3q5.3-0.4 10.5-4 5.1-3.6 12.5-12l4.5-5.1q5.9-6.7 5.9-12.1 0-3.9-3.1-6.2-3.1-2.4-7.9-2.7v-2.5q11.3 0.4 22.7 0.4 8.2 0 13.6-0.4v2.5q-11.7 3.1-22 14.8l-13.2 15z"/>
			</g>
		</g>
	</g>
	<g>
		<g>
			<g>
				<path class="s1" d="m99.4 2.5q8.8 0 15 2.5 6.2 2.5 12 7.1 1.5 1.3 2.8 1.3 2.9 0 3.8-8.8h3.4q-0.6 10.4-0.6 36.7h-3.4q-1-11.7-3.8-18.5-2.8-6.7-9.7-11.3-6.9-4.4-13.6-4.4-15.3 0-21.5 14.7-6.1 14.7-6.1 35.1 0 20.4 6.1 35.1 6.2 14.7 21.5 14.7 6.7 0 13.6-4.5 6.9-4.2 9.7-11.4 2.8-7.2 3.8-20.4h3.4q0 27.4 0.6 38.2h-3.4q-0.4-4.7-1.2-6.7-0.8-2-2.3-2-1.2 0-3.1 1.2-6.6 4.7-12.6 7.1-6 2.4-14.5 2.4-16.6 0-29.1-6.3-12.5-6.3-19.4-18.3-6.9-11.9-6.9-28.5 0-16.2 7-28.7 7.1-12.4 19.7-19.4 12.7-6.9 28.8-6.9z"/>
			</g>
		</g>
	</g>
	<g id="Clip-Path" clip-path="url(#cp1)">
		<g>
			<g id="Clip-Path" clip-path="url(#cp2)">
				<g>
					<g id="Clip-Path" clip-path="url(#cp3)">
						<g>
							<path fill-rule="evenodd" class="s2" d="m268.7 58.7c0 1.8 0.4 3.9-0.5 5.5-0.8 1.2-2.1 1.7-3.6 1.9-0.4 1.2-1 2.3-2 3-2.4 2-5.8 1.7-8.7 1-3.5-0.8-6.8-2.2-10.4-2.3-3.6-0.1-7.1 0.6-10.6 1.2-3.5 0.7-7 1.1-10.5 0.6q-1.5-0.2-3-0.5-1.5 0.1-3 0c-3.8-0.2-7.5-1.7-11.2-2.7-1.2 0.4-2.2 1-3.3 1.4-3.2 1.2-6.8 1.3-10.1 0.4-2.6-0.8-5.4-2.4-6.5-5-1.3-3.2 0.9-6.5 2.4-9.2q0.5-0.9 1-1.8c-0.6-4.8-1.8-11.4 3.8-10.7q0.9 0.1 1.7 0.4 0.1-0.1 0.2-0.2c1.1-0.7 2.2-1.6 3.4-2.1 1.4-0.5 3-0.4 4.4 0.1 1.4 0.4 2.7 1.1 4 1.8q0.1 0 0.2-0.1c3.9-1.3 8-0.8 12 0.2 1.4 0.3 2.9 0.7 4.3 1.1 2.8-1 5.4-2.5 8.2-3.1 7.1-1.6 14.2 1.4 21.1 2.4q2.2 0.3 4.4 0.5 4.7-0.9 9.4-2.2c1-0.3 2.2-0.5 2.9 0.2 0.3 0.3 0.5 0.7 0.6 1.1q1.8 5.1 0.7 10.4c-0.4 2.2-1.3 4.4-1.3 6.7zm-44.8-15.6c2 0.5 4.1 1 6.2 1.3 2.7 0.4 5.4 0.3 8.1 0.2q7.8-0.4 15.5-1.7c-2.9-0.3-5.7-0.9-8.5-1.5-3.4-0.8-6.8-1.6-10.3-1.6-1.7 0.1-3.5 0.3-5.1 0.8-1.7 0.6-3.2 1.3-4.8 2q-0.6 0.2-1.1 0.5zm-28.8-0.9c2.1 0.8 3.8 2.1 6.3 1.3 1.3-0.4 2.6-1.1 3.9-1.6-2.4-1.3-5-2.6-7.6-1.4-0.9 0.4-1.8 1.1-2.6 1.7zm8.8 23.9q-1.8-0.4-3.7-0.4c-2.2-0.1-4.4 0.3-6.6 0-2.2-0.3-4.5-1.4-5.2-3.5-0.7-2.1 0.3-4.3 0.5-6.4 0.1-0.6 0-1.4 0-2.3q-0.2 0.2-0.3 0.5c-0.9 1.5-1.8 3-2.5 4.6-0.5 1.5-0.7 3 0 4.5 0.6 1.2 1.6 2.2 2.7 3 2.7 1.7 6.1 2.2 9.2 1.8 1.7-0.1 3.4-0.7 4.9-1.3q0.5-0.3 1-0.5zm59.9 0.1q-1 0.1-1.9 0c-7.4-0.6-14.8-3-22.2-2.1-6.1 0.7-11.9 3.6-17.8 4.7 2 0.3 4 0.4 6 0.2 3.5-0.3 6.9-1.1 10.3-1.6 1.8-0.2 3.5-0.4 5.2-0.3 1.7 0 3.4 0.3 5 0.7 3.2 0.9 6.4 2.2 9.7 2.1 1.5-0.1 3-0.4 4.1-1.4 0.7-0.6 1.2-1.4 1.6-2.3z"/>
						</g>
					</g>
				</g>
			</g>
		</g>
	</g>
	<g id="Clip-Path" clip-path="url(#cp4)">
		<g>
			<g id="Clip-Path" clip-path="url(#cp5)">
				<g>
					<g id="Clip-Path" clip-path="url(#cp6)">
						<g>
							<path fill-rule="evenodd" class="s2" d="m121.9 58.9c-0.1 1.9 0.4 3.9-0.6 5.5-0.7 1.2-2 1.8-3.5 2-0.4 1.1-1 2.2-2 3-2.4 1.9-5.9 1.6-8.7 1-3.5-0.8-6.8-2.2-10.4-2.4-3.6-0.1-7.1 0.7-10.6 1.3-3.5 0.6-7 1-10.5 0.6q-1.5-0.2-3-0.6-1.5 0.2-3 0.1c-3.8-0.3-7.5-1.8-11.3-2.7-1.1 0.3-2.1 0.9-3.2 1.3-3.2 1.2-6.8 1.3-10.1 0.4-2.7-0.8-5.4-2.4-6.5-5-1.3-3.2 0.9-6.4 2.4-9.1q0.5-0.9 1-1.9c-0.6-4.8-1.8-11.4 3.8-10.7q0.9 0.1 1.7 0.4 0.1-0.1 0.2-0.1c1.1-0.8 2.1-1.7 3.4-2.2 1.4-0.5 3-0.4 4.4 0.1 1.4 0.4 2.7 1.2 4 1.8q0.1 0 0.2 0c3.8-1.3 8-0.9 12 0.1q2.1 0.5 4.3 1.1c2.8-1 5.3-2.5 8.2-3.1 7.1-1.6 14.2 1.4 21.1 2.4q2.2 0.3 4.4 0.5 4.7-0.9 9.4-2.2c1-0.2 2.2-0.4 2.9 0.3 0.3 0.2 0.4 0.6 0.6 1q1.8 5.1 0.7 10.4c-0.4 2.2-1.3 4.4-1.3 6.7zm-44.8-15.6c2 0.6 4.1 1.1 6.2 1.4 2.7 0.3 5.4 0.3 8.1 0.1q7.8-0.3 15.5-1.6c-2.9-0.4-5.7-1-8.5-1.6-3.4-0.8-6.8-1.6-10.3-1.5-1.7 0-3.5 0.2-5.1 0.8-1.7 0.5-3.2 1.3-4.8 1.9q-0.6 0.3-1.1 0.5zm-28.9-0.9c2.2 0.9 3.9 2.1 6.4 1.3 1.3-0.4 2.6-1.1 3.9-1.6-2.4-1.3-5-2.6-7.6-1.4-0.9 0.4-1.8 1.1-2.7 1.7zm8.9 24q-1.8-0.4-3.7-0.5c-2.2 0-4.4 0.4-6.6 0.1-2.2-0.3-4.5-1.5-5.2-3.6-0.7-2.1 0.3-4.2 0.5-6.4 0.1-0.6 0-1.4-0.1-2.3q-0.1 0.3-0.3 0.5c-0.8 1.5-1.7 3-2.4 4.7-0.5 1.4-0.7 3 0 4.4 0.5 1.3 1.6 2.3 2.7 3 2.7 1.7 6.1 2.2 9.2 1.9 1.7-0.2 3.4-0.7 4.9-1.4q0.5-0.2 1-0.4zm59.9 0.1q-1 0-1.9-0.1c-7.4-0.6-14.8-3-22.2-2.1-6.1 0.7-11.9 3.7-17.8 4.7 2 0.3 4 0.4 6 0.2 3.5-0.3 6.9-1.1 10.3-1.6 1.8-0.2 3.5-0.4 5.2-0.3 1.7 0.1 3.4 0.4 5 0.8 3.2 0.8 6.4 2.1 9.7 2 1.5 0 3-0.4 4.1-1.3 0.7-0.6 1.2-1.5 1.6-2.3z"/>
						</g>
					</g>
				</g>
			</g>
		</g>
	</g>
	<g id="Clip-Path" clip-path="url(#cp7)">
		<g>
			<g id="Clip-Path" clip-path="url(#cp8)">
				<g>
					<g id="Clip-Path" clip-path="url(#cp9)">
						<g>
							<path fill-rule="evenodd" class="s2" d="m261.2 60.1c-0.1 1.8 0.4 3.9-0.6 5.5-0.7 1.2-2 1.8-3.5 2-0.4 1.1-1 2.2-2 3-2.4 1.9-5.9 1.6-8.7 0.9-3.5-0.8-6.8-2.1-10.4-2.3-3.6-0.1-7.1 0.6-10.6 1.3-3.5 0.6-7 1-10.5 0.5q-1.5-0.2-3-0.5-1.5 0.1-3 0c-3.8-0.2-7.5-1.7-11.3-2.7-1.1 0.4-2.2 1-3.3 1.4-3.2 1.2-6.7 1.3-10 0.4-2.7-0.8-5.4-2.4-6.5-5-1.3-3.2 0.9-6.4 2.4-9.2q0.5-0.9 1-1.8c-0.6-4.8-1.8-11.4 3.8-10.7q0.9 0.1 1.7 0.4 0.1-0.1 0.2-0.1c1.1-0.8 2.1-1.7 3.4-2.2 1.4-0.5 3-0.4 4.4 0.1 1.4 0.4 2.7 1.1 4 1.8q0.1 0 0.2-0.1c3.8-1.3 8-0.8 12 0.2q2.1 0.5 4.3 1.1c2.7-1 5.3-2.5 8.2-3.1 7.1-1.6 14.2 1.4 21.1 2.4q2.2 0.3 4.4 0.5 4.7-0.9 9.4-2.2c1-0.3 2.2-0.5 2.9 0.2 0.3 0.3 0.4 0.7 0.6 1.1q1.8 5.1 0.7 10.4c-0.4 2.2-1.3 4.4-1.3 6.7zm-44.8-15.6c2 0.5 4.1 1 6.2 1.3 2.7 0.4 5.4 0.3 8.1 0.2q7.8-0.4 15.5-1.7c-2.9-0.3-5.7-0.9-8.6-1.5-3.3-0.8-6.7-1.6-10.2-1.5-1.8 0-3.5 0.2-5.1 0.8-1.7 0.5-3.3 1.2-4.8 1.9q-0.6 0.2-1.1 0.5zm-28.9-0.9c2.2 0.9 3.9 2.1 6.4 1.3 1.3-0.4 2.6-1.1 3.9-1.6-2.4-1.3-5-2.6-7.6-1.4-1 0.4-1.8 1.1-2.7 1.7zm8.9 23.9q-1.8-0.3-3.7-0.4c-2.2-0.1-4.4 0.3-6.6 0-2.2-0.2-4.5-1.4-5.3-3.5-0.6-2.1 0.3-4.3 0.6-6.4 0.1-0.6 0-1.4-0.1-2.3q-0.1 0.2-0.3 0.5c-0.8 1.5-1.7 3-2.4 4.6-0.5 1.5-0.7 3.1 0 4.5 0.5 1.2 1.6 2.2 2.7 3 2.7 1.7 6.1 2.2 9.2 1.9 1.7-0.2 3.3-0.8 4.9-1.4q0.5-0.3 1-0.5zm59.9 0.1q-1 0.1-1.9 0c-7.5-0.6-14.8-3-22.2-2.1-6.1 0.7-11.9 3.6-17.8 4.7 2 0.3 4 0.4 6 0.2 3.5-0.3 6.9-1.1 10.3-1.6 1.7-0.2 3.5-0.4 5.2-0.3 1.7 0 3.4 0.3 5 0.8 3.2 0.8 6.4 2.1 9.7 2 1.5-0.1 2.9-0.4 4.1-1.4 0.7-0.6 1.2-1.4 1.6-2.3z"/>
						</g>
					</g>
				</g>
			</g>
		</g>
	</g>
	<g id="Clip-Path" clip-path="url(#cp10)">
		<g>
			<g id="Clip-Path" clip-path="url(#cp11)">
				<g>
					<g id="Clip-Path" clip-path="url(#cp12)">
						<g>
							<path fill-rule="evenodd" class="s2" d="m196.5 59.9c-0.1 1.9 0.4 4-0.6 5.6-0.7 1.2-2 1.7-3.5 1.9-0.4 1.2-1 2.3-2 3-2.4 2-5.9 1.7-8.7 1-3.5-0.8-6.8-2.2-10.4-2.3-3.6-0.1-7.1 0.6-10.6 1.2-3.5 0.6-7 1.1-10.5 0.6q-1.5-0.2-3-0.5-1.5 0.1-3 0c-3.8-0.3-7.5-1.8-11.3-2.7-1.1 0.4-2.1 1-3.3 1.4-3.1 1.2-6.7 1.3-10 0.4-2.7-0.8-5.4-2.4-6.5-5-1.3-3.2 0.9-6.5 2.4-9.2q0.5-0.9 1-1.8c-0.6-4.8-1.8-11.4 3.8-10.7q0.9 0.1 1.7 0.4 0.1-0.1 0.2-0.2c1.1-0.7 2.1-1.6 3.4-2.1 1.4-0.5 3-0.4 4.4 0 1.4 0.5 2.7 1.2 4 1.9q0.1 0 0.2-0.1c3.8-1.3 8-0.8 12 0.1 1.4 0.4 2.8 0.8 4.3 1.2 2.8-1 5.3-2.5 8.2-3.2 7.1-1.5 14.2 1.5 21.1 2.5q2.2 0.3 4.4 0.4 4.7-0.9 9.4-2.1c1-0.3 2.2-0.5 2.9 0.2 0.3 0.3 0.4 0.7 0.6 1.1q1.8 5.1 0.7 10.4c-0.4 2.2-1.3 4.4-1.3 6.6zm-44.8-15.6c2 0.6 4.1 1.1 6.2 1.4 2.7 0.4 5.4 0.3 8.1 0.2q7.8-0.4 15.5-1.7c-2.9-0.3-5.7-0.9-8.5-1.6-3.4-0.7-6.8-1.5-10.3-1.5-1.7 0.1-3.5 0.3-5.1 0.8-1.7 0.6-3.2 1.3-4.8 2q-0.6 0.2-1.1 0.4zm-28.9-0.8c2.2 0.8 3.9 2.1 6.4 1.3 1.3-0.5 2.6-1.1 3.9-1.6-2.4-1.3-5-2.6-7.6-1.5-0.9 0.5-1.8 1.1-2.7 1.8zm8.9 23.9q-1.8-0.4-3.7-0.4c-2.2-0.1-4.4 0.3-6.6 0-2.2-0.3-4.5-1.4-5.2-3.6-0.7-2 0.3-4.2 0.5-6.3 0.1-0.7 0-1.5-0.1-2.4q-0.1 0.3-0.2 0.6c-0.9 1.5-1.8 3-2.5 4.6-0.5 1.5-0.7 3 0 4.5 0.5 1.2 1.6 2.2 2.7 2.9 2.7 1.8 6.1 2.3 9.2 1.9 1.7-0.2 3.3-0.7 4.9-1.4q0.5-0.2 1-0.4zm59.9 0.1q-1 0.1-1.9 0c-7.4-0.6-14.8-3-22.2-2.1-6.1 0.7-11.9 3.6-17.8 4.7 2 0.3 4 0.4 6 0.2 3.5-0.3 6.9-1.1 10.3-1.6 1.7-0.3 3.5-0.4 5.2-0.3 1.7 0 3.4 0.3 5 0.7 3.2 0.9 6.4 2.2 9.7 2.1 1.5-0.1 3-0.4 4.1-1.4 0.7-0.6 1.2-1.4 1.6-2.3z"/>
						</g>
					</g>
				</g>
			</g>
		</g>
	</g>
	<g id="Clip-Path" clip-path="url(#cp13)">
		<g>
			<g id="Clip-Path" clip-path="url(#cp14)">
				<g>
					<g id="Clip-Path" clip-path="url(#cp15)">
						<g>
							<path fill-rule="evenodd" class="s2" d="m85.5 61.9c0 1.9 0.5 4-0.5 5.6-0.8 1.2-2.1 1.7-3.6 1.9-0.4 1.2-1 2.2-2 3-2.4 2-5.8 1.6-8.7 1-3.4-0.8-6.8-2.2-10.4-2.3-3.5-0.2-7.1 0.6-10.6 1.2-3.5 0.6-6.9 1-10.5 0.6q-1.5-0.2-2.9-0.5-1.5 0.1-3 0c-3.9-0.3-7.6-1.8-11.3-2.7-1.1 0.4-2.2 1-3.3 1.4-3.2 1.1-6.8 1.3-10.1 0.3-2.6-0.7-5.4-2.3-6.5-5-1.3-3.2 0.9-6.4 2.4-9.1q0.5-0.9 1-1.8c-0.6-4.9-1.8-11.5 3.9-10.7q0.8 0.1 1.7 0.3 0.1 0 0.1-0.1c1.1-0.8 2.2-1.6 3.5-2.1 1.4-0.6 2.9-0.4 4.3 0 1.4 0.5 2.7 1.2 4 1.9q0.1-0.1 0.3-0.1c3.8-1.3 8-0.8 11.9 0.1 1.4 0.4 2.9 0.8 4.3 1.2 2.8-1 5.4-2.5 8.3-3.2 7.1-1.6 14.1 1.4 21 2.5q2.2 0.3 4.4 0.4 4.8-0.9 9.4-2.1c1-0.3 2.2-0.5 2.9 0.2 0.3 0.3 0.5 0.7 0.6 1.1q1.8 5.1 0.7 10.3c-0.4 2.3-1.2 4.5-1.3 6.7zm-44.8-15.6c2.1 0.6 4.1 1.1 6.2 1.4 2.7 0.3 5.4 0.3 8.1 0.2q7.8-0.4 15.5-1.7c-2.9-0.3-5.7-0.9-8.5-1.6-3.4-0.7-6.8-1.5-10.3-1.5-1.7 0-3.4 0.3-5.1 0.8-1.7 0.5-3.2 1.3-4.8 2q-0.5 0.2-1.1 0.4zm-28.8-0.9c2.1 0.9 3.8 2.2 6.3 1.4 1.4-0.5 2.6-1.1 3.9-1.7-2.4-1.2-5-2.6-7.6-1.4-0.9 0.5-1.8 1.1-2.6 1.7zm8.8 24q-1.8-0.4-3.6-0.5c-2.3 0-4.5 0.4-6.7 0.1-2.2-0.3-4.5-1.5-5.2-3.6-0.7-2 0.3-4.2 0.5-6.4 0.1-0.6 0.1-1.4 0-2.3q-0.2 0.3-0.3 0.5c-0.9 1.6-1.8 3.1-2.4 4.7-0.6 1.4-0.8 3-0.1 4.5 0.6 1.2 1.6 2.2 2.7 2.9 2.7 1.7 6.1 2.3 9.2 1.9 1.8-0.2 3.4-0.7 5-1.4q0.4-0.2 0.9-0.4zm59.9 0.1q-0.9 0-1.9 0c-7.4-0.6-14.8-3-22.1-2.2-6.1 0.8-11.9 3.7-17.9 4.8 2 0.2 4 0.3 6.1 0.2 3.4-0.3 6.8-1.2 10.3-1.6 1.7-0.3 3.4-0.4 5.1-0.4 1.7 0.1 3.4 0.4 5 0.8 3.2 0.8 6.4 2.2 9.8 2 1.4 0 2.9-0.4 4-1.3 0.8-0.6 1.3-1.4 1.6-2.3z"/>
						</g>
					</g>
				</g>
			</g>
		</g>
	</g>
	<g id="Clip-Path" clip-path="url(#cp16)">
		<g>
			<path class="s0" d="m2.1 42.1l-0.5 36.6-0.6-36.6z"/>
		</g>
	</g>
	<g id="Clip-Path" clip-path="url(#cp17)">
		<g>
			<path class="s0" d="m1.6 42.1l32.6 0.5-32.6 0.6z"/>
		</g>
	</g>
	<path class="s0" d="m4.1 43.9l-0.6 30.7-0.5-30.7z"/>
	<path class="s0" d="m3.3 43.9l27.3 0.6-27.3 0.6z"/>
	<path class="s0" d="m6.1 45.7l-0.5 19.9-0.6-19.9z"/>
	<path class="s0" d="m5.6 45.7l17.7 0.6-17.7 0.6z"/>
	<g id="Clip-Path" clip-path="url(#cp18)">
		<g>
			<path class="s3" d="m270.8 72l0.5-36.6 0.6 36.6z"/>
		</g>
	</g>
	<g id="Clip-Path" clip-path="url(#cp19)">
		<g>
			<path class="s3" d="m271.3 72l-32.6-0.6 32.6-0.5z"/>
		</g>
	</g>
	<path class="s3" d="m268.8 70.2l0.5-30.7 0.6 30.7z"/>
	<path class="s3" d="m269.6 70.2l-27.3-0.6 27.3-0.6z"/>
	<path class="s3" d="m266.7 68.4l0.6-19.9 0.6 19.9z"/>
	<path class="s3" d="m267.3 68.4l-17.7-0.6 17.7-0.6z"/>
	<g>
		<g>
			<g>
				<path class="s4" d="m78.1 53.7h-0.7q-0.2-0.5-0.4-0.8-0.3-0.3-0.7-0.5-0.4-0.1-0.8-0.1-0.6 0-1.1 0.3-0.5 0.3-0.8 0.9-0.3 0.6-0.3 1.4 0 0.9 0.3 1.5 0.3 0.6 0.8 0.9 0.5 0.3 1.1 0.3 0.4 0 0.8-0.2 0.4-0.1 0.7-0.4 0.2-0.4 0.4-0.8h0.7q-0.1 0.7-0.5 1.2-0.3 0.4-0.9 0.7-0.6 0.3-1.2 0.3-0.9 0-1.6-0.5-0.6-0.4-1-1.2-0.4-0.7-0.4-1.8 0-1 0.4-1.8 0.4-0.8 1-1.2 0.7-0.4 1.6-0.4 0.6 0 1.2 0.3 0.6 0.2 0.9 0.7 0.4 0.5 0.5 1.2z"/>
			</g>
		</g>
	</g>
	<g>
		<g>
			<g>
				<path class="s4" d="m81.3 58.3v-6.7h0.8v5.9h3.1v0.8z"/>
			</g>
		</g>
	</g>
	<g>
		<g>
			<g>
				<path class="s4" d="m89.2 51.6v6.7h-0.8v-6.7z"/>
			</g>
		</g>
	</g>
	<g>
		<g>
			<g>
				<path class="s4" d="m98 53.7h-0.8q-0.1-0.5-0.4-0.8-0.2-0.3-0.6-0.5-0.4-0.1-0.9-0.1-0.6 0-1.1 0.3-0.4 0.3-0.7 0.9-0.3 0.6-0.3 1.4 0 0.9 0.3 1.5 0.3 0.6 0.7 0.9 0.5 0.3 1.1 0.3 0.5 0 0.9-0.2 0.4-0.1 0.6-0.4 0.3-0.4 0.4-0.8h0.8q-0.1 0.7-0.5 1.2-0.3 0.4-0.9 0.7-0.6 0.3-1.3 0.3-0.8 0-1.5-0.5-0.6-0.4-1-1.2-0.4-0.7-0.4-1.8 0-1 0.4-1.8 0.4-0.8 1-1.2 0.7-0.4 1.5-0.4 0.7 0 1.3 0.3 0.6 0.2 0.9 0.7 0.4 0.5 0.5 1.2z"/>
			</g>
		</g>
	</g>
	<g>
		<g>
			<g>
				<path class="s4" d="m101.2 58.3v-6.7h0.8v3.3h0.1l3-3.3h1.1l-2.9 3 2.9 3.7h-1l-2.3-3.1-0.9 0.9v2.2z"/>
			</g>
		</g>
	</g>
	<g>
		<g>
			<g>
				<path class="s4" d="m109.1 51.6h0.9l2.3 5.5h0.1l2.3-5.5h0.9v6.7h-0.7v-5.1h-0.1l-2.1 5.1h-0.7l-2.1-5.1h-0.1v5.1h-0.7z"/>
			</g>
		</g>
	</g>
	<g>
		<g>
			<g>
				<path fill-rule="evenodd" class="s4" d="m119.6 58.3h-0.9l2.5-6.7h0.8l2.5 6.7h-0.9l-0.6-1.9h-2.7zm0.9-2.6h2.2l-1.1-3z"/>
			</g>
		</g>
	</g>
	<g>
		<g>
			<g>
				<path class="s4" d="m127 52.3v-0.7h5v0.7h-2.1v6h-0.8v-6z"/>
			</g>
		</g>
	</g>
	<g>
		<g>
			<g>
				<path class="s4" d="m135.2 58.3v-6.7h4v0.7h-3.2v2.3h3v0.7h-3v2.2h3.2v0.8z"/>
			</g>
		</g>
	</g>
	<g>
		<g>
			<g>
			</g>
		</g>
	</g>
	<g>
		<g>
			<g>
				<path fill-rule="evenodd" class="s4" d="m147 58.3v-6.7h2.2q0.8 0 1.3 0.3 0.5 0.2 0.7 0.7 0.3 0.4 0.3 1 0 0.7-0.3 1.2-0.3 0.5-1 0.7l1.6 2.8h-1l-1.4-2.6q-0.1 0-0.2 0h-1.4v2.6zm0.8-3.4h1.4q0.8 0 1.1-0.3 0.4-0.4 0.4-1 0-0.6-0.4-0.9-0.3-0.4-1.1-0.4h-1.4z"/>
			</g>
		</g>
	</g>
	<g>
		<g>
			<g>
				<path class="s4" d="m154.7 58.3v-6.7h4v0.7h-3.2v2.3h3v0.7h-3v2.2h3.3v0.8z"/>
			</g>
		</g>
	</g>
	<g>
		<g>
			<g>
				<path class="s4" d="m167.4 51.6v6.7h-0.8l-3.6-5.3h-0.1v5.3h-0.8v-6.7h0.8l3.6 5.2h0.1v-5.2z"/>
			</g>
		</g>
	</g>
	<g>
		<g>
			<g>
				<path class="s4" d="m170.5 52.3v-0.7h5v0.7h-2.1v6h-0.8v-6z"/>
			</g>
		</g>
	</g>
	<g>
		<g>
			<g>
				<path fill-rule="evenodd" class="s4" d="m178.9 58.3h-0.9l2.5-6.7h0.8l2.5 6.7h-0.9l-0.6-1.9h-2.7zm0.9-2.6h2.2l-1.1-3z"/>
			</g>
		</g>
	</g>
	<g>
		<g>
			<g>
				<path class="s4" d="m186.7 58.3v-6.7h0.8v5.9h3.1v0.8z"/>
			</g>
		</g>
	</g>
	<g>
		<g>
			<g>
				<path class="s4" d="m197.4 53.3q-0.1-0.5-0.5-0.8-0.4-0.3-1-0.3-0.7 0-1.1 0.3-0.4 0.3-0.4 0.8 0 0.4 0.2 0.6 0.2 0.2 0.5 0.3 0.4 0.2 0.6 0.2l0.7 0.2q0.2 0.1 0.6 0.2 0.3 0.1 0.6 0.3 0.3 0.2 0.5 0.6 0.2 0.3 0.2 0.8 0 0.5-0.3 0.9-0.3 0.5-0.9 0.7-0.5 0.3-1.3 0.3-1 0-1.7-0.5-0.6-0.5-0.7-1.4h0.9q0 0.4 0.2 0.7 0.3 0.2 0.6 0.3 0.3 0.2 0.7 0.2 0.5 0 0.9-0.2 0.3-0.2 0.6-0.4 0.2-0.3 0.2-0.7 0-0.3-0.2-0.5-0.2-0.2-0.5-0.3-0.3-0.2-0.7-0.3l-0.8-0.2q-0.8-0.2-1.2-0.6-0.5-0.5-0.5-1.1 0-0.6 0.3-1 0.3-0.4 0.9-0.7 0.5-0.2 1.1-0.2 0.6 0 1.2 0.2 0.4 0.3 0.7 0.7 0.3 0.4 0.4 0.9z"/>
			</g>
		</g>
	</g>
	<g>
		<g>
			<g>
			</g>
		</g>
	</g>
	<g>
		<g>
			<g>
			</g>
		</g>
	</g>
	<g>
		<g>
			<g>
			</g>
		</g>
	</g>
	<g>
		<g>
			<g>
			</g>
		</g>
	</g>
	<g>
		<g>
			<g>
			</g>
		</g>
	</g>
	<g>
		<g>
			<g>
			</g>
		</g>
	</g>
	<g>
		<g>
			<g>
			</g>
		</g>
	</g>
	<g>
		<g>
			<g>
			</g>
		</g>
	</g>
	<g>
		<g>
			<g>
			</g>
		</g>
	</g>
	<g>
		<g>
			<g>
			</g>
		</g>
	</g>
</svg>